ply
format ascii 1.0
comment Right-Handed System
element vertex 225
property float x
property float y
property float z
property uchar red
property uchar green
property uchar blue
element face 270
property list uchar int vertex_index
end_header
190.8337939201 -1.1601956889 24.2611099334 80 80 80
169.4514207718 -14.3746504622 42.3700853085 68 114 196
201.4004130402 -14.1283494898 50.3366910451 68 114 196
201.0353396469 10.6219315444 51.0355833743 68 114 196
169.0863473785 10.3756305720 43.0689776377 68 114 196
296.4329546763 -64.3118096473 62.7166319792 80 80 80
268.2955252314 -66.4560450878 75.5012916803 68 114 196
294.7123166901 -80.9229497923 88.8101292971 68 114 196
305.3105925349 -58.7532748670 91.8722696987 68 114 196
278.8938010762 -44.2863701625 78.5634320819 68 114 196
353.0172263150 -170.3877909374 112.7125752453 80 80 80
324.9843711620 -159.5222059052 120.1866333401 68 114 196
338.9292999479 -184.5759707147 136.3766422804 68 114 196
357.4810056533 -169.7358335993 143.3624025567 68 114 196
343.5360768674 -144.6820687898 127.1723936164 68 114 196
344.2762460149 -292.0119790763 161.4687151709 80 80 80
323.2344608858 -269.5508083724 165.0043083272 68 114 196
320.9528756416 -298.3203070112 180.8590908765 68 114 196
342.3960785655 -293.6904585567 192.3460380791 68 114 196
344.6776638097 -264.9209599179 176.4912555298 68 114 196
272.1322679151 -394.8076930875 194.7288435594 80 80 80
263.1483264521 -365.2306150445 196.7899893450 68 114 196
245.1600486415 -389.8855326906 209.1522664530 68 114 196
263.6860215778 -395.6955036124 224.5220677738 68 114 196
281.6742993884 -371.0405859664 212.1597906657 68 114 196
345.9144928374 -427.3892968217 280.2740894025 80 80 80
336.3860929059 -398.0132118346 277.8209322343 68 114 196
316.7903960230 -421.8674369687 289.2772980203 68 114 196
332.4188943310 -425.6628206236 308.1066269282 68 114 196
352.0145912138 -401.8085954895 296.6502611423 68 114 196
417.9682670316 -329.7400675136 249.3737699261 80 80 80
399.3254268870 -305.0510890866 247.7419670365 68 114 196
389.9330893670 -333.1524591858 262.1075149507 68 114 196
408.1259073963 -330.7345646198 278.7319395311 68 114 196
417.5182449163 -302.6331945206 264.3663916169 68 114 196
450.5922903939 -215.8361863018 207.1839830899 80 80 80
424.9450682667 -198.4658302455 207.6875607122 68 114 196
426.9340435038 -227.2019869849 223.6420696906 68 114 196
445.2768976367 -218.1745656654 237.6148957137 68 114 196
443.2879223996 -189.4384089259 221.6603867353 68 114 196
438.3247754976 -99.1497116738 158.0729351643 80 80 80
408.7151022514 -90.8485692452 161.8307674759 68 114 196
421.8662250770 -116.4725241181 177.7909301878 68 114 196
437.9011469905 -101.2754312072 188.9770608283 68 114 196
424.7500241648 -75.6514763344 173.0168981164 68 114 196
383.0551617335 2.9337902426 109.6035007410 80 80 80
353.0646311204 1.6296037856 117.2605562282 68 114 196
375.6505239609 -17.5234411702 131.6587873555 68 114 196
387.2054377378 2.6003502293 140.3024818238 68 114 196
364.6195448973 21.7533951852 125.9042506965 68 114 196
292.7489773906 78.6667917450 67.6826751328 80 80 80
265.9615023552 68.4168084103 79.3929913745 68 114 196
295.1046505233 58.2761679190 90.8869078946 68 114 196
300.5667053016 81.4986935853 97.5260328118 68 114 196
271.4235571335 91.6393340767 86.0321162917 68 114 196
184.3236208637 231.8408991683 77.7868882191 80 80 80
163.7009228375 211.7476189134 89.2204808022 68 114 196
195.6748957260 210.3155861251 96.9590581856 68 114 196
194.2236080399 232.8486167689 107.1252209389 68 114 196
162.2496351514 234.2806495572 99.3866435554 68 114 196
299.5468613754 196.3853074889 105.6769071838 80 80 80
273.4321120122 182.0246098075 114.1357291022 68 114 196
303.0013162144 172.3659487261 124.9356278399 68 114 196
306.1909532082 194.3547367917 135.8678560755 68 114 196
276.6217490060 204.0133978730 125.0679573378 68 114 196
398.5304126371 132.5941640408 143.5020713821 80 80 80
368.8890209029 125.2248188258 148.6829957731 68 114 196
393.7372839952 108.1770828396 161.9572405838 68 114 196
401.1621428705 128.4466915237 174.0901994449 68 114 196
376.3138797782 145.4944275099 160.8159546341 68 114 196
473.7135480805 45.5796114631 188.3582444554 80 80 80
442.7912175686 45.9058996715 190.2199660391 68 114 196
460.9795365937 22.8755246561 205.1550272581 68 114 196
471.9035974091 40.3808914507 218.8452893051 68 114 196
453.7152783840 63.4112664661 203.9102280860 68 114 196
519.6751085351 -59.3990294052 237.0679028652 80 80 80
489.8106481293 -51.2536526657 235.8311719836 68 114 196
499.9130003331 -78.3911473921 251.5081647379 68 114 196
513.3379150806 -64.4631100930 266.9670264802 68 114 196
503.2355628768 -37.3256153666 251.2900337258 68 114 196
531.1951123631 -173.9963784601 284.8933756598 80 80 80
504.6734562713 -158.4574478064 281.0324688788 68 114 196
505.8419559001 -187.5133843041 296.4809196275 68 114 196
520.6198041419 -177.7253488999 313.7728004311 68 114 196
519.4513045130 -148.6694124022 298.3243496824 68 114 196
508.1472583584 -287.7709373214 327.7421699280 80 80 80
486.9598237624 -265.9177131318 321.9722750647 68 114 196
479.1272802049 -294.5643099424 336.1951359314 68 114 196
493.9800944831 -289.1607759032 355.2580332237 68 114 196
501.8126380406 -260.5141790925 341.0351723569 68 114 196
453.0495281559 -392.4500489349 363.5357312367 80 80 80
438.7863465423 -365.8248964113 356.6491495682 68 114 196
422.5243363939 -391.7605608405 368.7797706329 68 114 196
436.1417109819 -390.6394330434 389.4318580515 68 114 196
452.4037211303 -364.7037686142 377.3012369869 68 114 196
465.5599901030 -438.3203140159 486.9529017122 80 80 80
455.2995605943 -411.5325603585 475.2523687146 68 114 196
434.7774560888 -435.2375569635 485.3115056583 68 114 196
443.7137349264 -433.2118388295 508.3165862417 68 114 196
464.2358394319 -409.5068422245 498.2574492980 68 114 196
534.4749260497 -341.6466749523 455.4066394442 80 80 80
517.6777193692 -318.1165715743 444.2733899774 68 114 196
503.7330226306 -345.3123070638 456.5289940143 68 114 196
513.9510475500 -340.6100611651 478.5897594497 68 114 196
527.8957442885 -313.4143256757 466.3341554128 68 114 196
577.7398614600 -233.5904054099 416.5050434872 80 80 80
555.3369068646 -214.6324043150 406.5820599184 68 114 196
548.7434033912 -243.7515654052 420.4697931022 68 114 196
559.5361052512 -236.1955832676 441.4369402120 68 114 196
566.1296087246 -207.0764221774 427.5492070283 68 114 196
593.2591707374 -119.9824970511 372.5952483299 80 80 80
566.5116709612 -106.6504256422 364.4350108146 68 114 196
567.6095785793 -136.0058333981 379.3119250116 68 114 196
578.2316291559 -125.5791630814 399.1020939226 68 114 196
577.1337215378 -96.2237553255 384.2251797256 68 114 196
579.7117813255 -6.7794223244 325.9243490398 80 80 80
550.1122806682 0.1775740246 319.9888438822 68 114 196
558.8294253786 -27.7180643758 335.1580664330 68 114 196
568.5492922375 -14.5684938073 353.7540151915 68 114 196
559.8321475270 13.3271445931 338.5847926408 68 114 196
537.2414246657 98.1903068205 277.5864918534 80 80 80
506.4373694645 98.4019748231 274.2960563488 68 114 196
522.2927151386 73.5850485331 289.0267008191 68 114 196
530.4925375607 89.1616814744 306.4430020691 68 114 196
514.6371918866 113.9786077644 291.7123575988 68 114 196
469.3648553672 189.6561157683 231.8074349746 80 80 80
439.0935891376 183.0812487419 231.3777945642 68 114 196
461.2105675575 162.8202519834 244.9644779379 68 114 196
467.2868807859 180.4089156843 261.3021049011 68 114 196
445.1699023660 200.6699124429 247.7154215274 68 114 196
379.3776861788 262.6908969619 191.3351890095 80 80 80
351.3330976221 249.7545433150 193.7669906039 68 114 196
378.4009871824 235.2055450786 205.5957290489 68 114 196
381.8885769435 254.2479296204 221.0365935243 68 114 196
354.8206873832 268.7969278568 209.2078550792 68 114 196
272.5476556187 313.4453924618 158.2055724227 80 80 80
248.2992764986 294.8707501538 163.3786094533 68 114 196
278.7916110028 286.9092807037 172.9232425080 68 114 196
279.3604348124 306.7837503475 187.6838683228 68 114 196
248.8681003082 314.7452197977 178.1392352681 68 114 196
167.8664854706 426.5366769121 217.9828794967 80 80 80
148.2756983460 402.6763524716 220.5616471981 68 114 196
180.3487425777 399.8073988677 227.4434993561 68 114 196
177.9691864144 416.5644702869 245.5193036539 68 114 196
145.8961421827 419.4334238907 238.6374514959 68 114 196
284.6568334894 399.1958762701 242.7092302921 80 80 80
260.6522901294 379.6141718847 243.0276449341 68 114 196
290.8809935381 370.3939486389 252.2733289392 68 114 196
290.3385886429 387.0145532158 270.6215045115 68 114 196
260.1098852342 396.2347764617 261.3758205063 68 114 196
391.3207125617 349.1335742975 275.6243865667 80 80 80
364.0169343732 334.6548116624 273.4721023711 68 114 196
391.0044947580 319.5292963747 284.7484790926 68 114 196
392.2048251009 335.6535067840 303.5039392060 68 114 196
365.2172647161 350.7790220717 292.2275624845 68 114 196
483.1720317603 278.6089159014 315.3407349355 80 80 80
453.8415398193 269.8216815558 310.6215767617 68 114 196
476.3389874018 249.5120967011 323.4922993342 68 114 196
479.1095584655 264.8004605785 342.7740489441 68 114 196
456.6121108831 285.1100454332 329.9033263716 68 114 196
555.6432038144 191.1081325555 360.0248928195 80 80 80
525.6568956496 188.3266219169 352.7552859955 68 114 196
542.6303721534 163.7980231094 366.7022398193 68 114 196
546.7162066363 177.9454127415 386.6108826981 68 114 196
529.7427301325 202.4740115489 372.6639288742 68 114 196
605.9478320617 90.1218103170 407.5725885895 80 80 80
576.7005495329 93.4011144635 397.8976958677 68 114 196
587.3613170467 65.8014734049 412.3500583948 68 114 196
592.4595618271 78.5589519432 432.9522721136 68 114 196
581.7987943133 106.1585930018 418.4999095865 68 114 196
631.2989300270 -19.7343411381 454.7232069795 80 80 80
604.1395846733 -10.6125298698 442.9365338329 68 114 196
607.9973082141 -39.9852451357 457.3111462636 68 114 196
613.7952184600 -28.7927190643 478.6256907516 68 114 196
609.9374949192 0.5799962016 464.2510783209 68 114 196
630.5834793190 -133.5270415912 500.1284820019 80 80 80
606.7834957486 -119.0443769655 486.5794960486 68 114 196
603.6349906555 -148.8080366401 500.3082024556 68 114 196
609.7658125554 -139.2969044335 522.3342221875 68 114 196
612.9143176485 -109.5332447590 508.6055157804 68 114 196
604.0158536527 -245.1739531334 542.3747446888 80 80 80
584.6936731956 -226.0835094815 527.4760192819 68 114 196
574.6781178675 -254.8407214627 540.0051329834 68 114 196
580.7276506129 -247.0514244944 562.7192359478 68 114 196
590.7432059410 -218.2942125132 550.1901222463 68 114 196
552.8542674299 -350.0840565718 579.1407155257 80 80 80
538.9189618915 -327.3389671645 563.3853538401 68 114 196
522.4885452723 -353.7420178968 574.2107459067 68 114 196
528.0603243724 -347.6385195805 597.5538056620 68 114 196
544.4907409916 -321.2354688482 586.7284135954 68 114 196
512.6388300474 -392.4117995631 718.9489333306 80 80 80
504.8887944839 -370.0450714375 698.9632024351 68 114 196
483.9366463735 -394.0058110183 707.3987342248 68 114 196
484.7184422314 -386.3977482532 730.9508606234 68 114 196
505.6705903418 -362.4370086725 722.5153288337 68 114 196
580.3957491964 -295.9398071449 687.6453811714 80 80 80
567.1929976137 -275.9696449574 667.9821700106 68 114 196
551.7281552868 -303.1262329115 678.3563567752 68 114 196
552.7908696547 -294.8279300110 701.6630842307 68 114 196
568.2557119816 -267.6713420569 691.2888974661 68 114 196
626.6512864510 -189.6514814728 650.0308560607 80 80 80
608.5660357170 -173.0238678132 631.1573372867 68 114 196
599.2185129123 -202.2585101376 643.0832839321 68 114 196
600.4198953382 -193.2464281968 666.1166688096 68 114 196
609.7674181428 -164.0117858723 654.1907221643 68 114 196
649.4117511893 -77.5725044594 607.3638732549 80 80 80
627.2171670013 -65.1190038072 589.6982668573 68 114 196
624.3785048126 -95.2253788770 602.7296781712 68 114 196
625.5536578474 -85.4933266166 625.4695300255 68 114 196
628.3923200361 -55.3869515468 612.4381187116 68 114 196
647.7054370359 35.3739563447 561.6485211081 80 80 80
622.3341908750 42.9614859805 545.5708527896 68 114 196
626.1645852563 13.2412300148 559.2200719360 68 114 196
627.1505345520 23.6725940522 581.6569384451 68 114 196
623.3201401706 53.3928500179 568.0077192987 68 114 196
621.7063600819 144.2039477612 514.4635496491 80 80 80
594.2635215255 146.5313358717 500.2778159807 68 114 196
604.5245520558 118.4287185453 514.0335232708 68 114 196
605.1940134289 129.5082116955 536.1693002671 68 114 196
594.9329828987 157.6108290220 522.4135929770 68 114 196
572.3896040300 245.0690583449 467.3586578425 80 80 80
544.0222544524 241.8976676586 455.3171113232 68 114 196
560.3058945387 216.5719821106 468.6482792001 68 114 196
560.5366094211 228.2219375673 490.4983182216 68 114 196
544.2529693348 253.5476231154 477.1671503447 68 114 196
3 0 2 3
3 0 1 4
3 0 3 4
3 0 1 2
3 1 2 4
3 2 3 4
3 5 7 8
3 5 6 9
3 5 8 9
3 5 6 7
3 6 7 9
3 7 8 9
3 10 12 13
3 10 11 14
3 10 13 14
3 10 11 12
3 11 12 14
3 12 13 14
3 15 17 18
3 15 16 19
3 15 18 19
3 15 16 17
3 16 17 19
3 17 18 19
3 20 22 23
3 20 21 24
3 20 23 24
3 20 21 22
3 21 22 24
3 22 23 24
3 25 27 28
3 25 26 29
3 25 28 29
3 25 26 27
3 26 27 29
3 27 28 29
3 30 32 33
3 30 31 34
3 30 33 34
3 30 31 32
3 31 32 34
3 32 33 34
3 35 37 38
3 35 36 39
3 35 38 39
3 35 36 37
3 36 37 39
3 37 38 39
3 40 42 43
3 40 41 44
3 40 43 44
3 40 41 42
3 41 42 44
3 42 43 44
3 45 47 48
3 45 46 49
3 45 48 49
3 45 46 47
3 46 47 49
3 47 48 49
3 50 52 53
3 50 51 54
3 50 53 54
3 50 51 52
3 51 52 54
3 52 53 54
3 55 57 58
3 55 56 59
3 55 58 59
3 55 56 57
3 56 57 59
3 57 58 59
3 60 62 63
3 60 61 64
3 60 63 64
3 60 61 62
3 61 62 64
3 62 63 64
3 65 67 68
3 65 66 69
3 65 68 69
3 65 66 67
3 66 67 69
3 67 68 69
3 70 72 73
3 70 71 74
3 70 73 74
3 70 71 72
3 71 72 74
3 72 73 74
3 75 77 78
3 75 76 79
3 75 78 79
3 75 76 77
3 76 77 79
3 77 78 79
3 80 82 83
3 80 81 84
3 80 83 84
3 80 81 82
3 81 82 84
3 82 83 84
3 85 87 88
3 85 86 89
3 85 88 89
3 85 86 87
3 86 87 89
3 87 88 89
3 90 92 93
3 90 91 94
3 90 93 94
3 90 91 92
3 91 92 94
3 92 93 94
3 95 97 98
3 95 96 99
3 95 98 99
3 95 96 97
3 96 97 99
3 97 98 99
3 100 102 103
3 100 101 104
3 100 103 104
3 100 101 102
3 101 102 104
3 102 103 104
3 105 107 108
3 105 106 109
3 105 108 109
3 105 106 107
3 106 107 109
3 107 108 109
3 110 112 113
3 110 111 114
3 110 113 114
3 110 111 112
3 111 112 114
3 112 113 114
3 115 117 118
3 115 116 119
3 115 118 119
3 115 116 117
3 116 117 119
3 117 118 119
3 120 122 123
3 120 121 124
3 120 123 124
3 120 121 122
3 121 122 124
3 122 123 124
3 125 127 128
3 125 126 129
3 125 128 129
3 125 126 127
3 126 127 129
3 127 128 129
3 130 132 133
3 130 131 134
3 130 133 134
3 130 131 132
3 131 132 134
3 132 133 134
3 135 137 138
3 135 136 139
3 135 138 139
3 135 136 137
3 136 137 139
3 137 138 139
3 140 142 143
3 140 141 144
3 140 143 144
3 140 141 142
3 141 142 144
3 142 143 144
3 145 147 148
3 145 146 149
3 145 148 149
3 145 146 147
3 146 147 149
3 147 148 149
3 150 152 153
3 150 151 154
3 150 153 154
3 150 151 152
3 151 152 154
3 152 153 154
3 155 157 158
3 155 156 159
3 155 158 159
3 155 156 157
3 156 157 159
3 157 158 159
3 160 162 163
3 160 161 164
3 160 163 164
3 160 161 162
3 161 162 164
3 162 163 164
3 165 167 168
3 165 166 169
3 165 168 169
3 165 166 167
3 166 167 169
3 167 168 169
3 170 172 173
3 170 171 174
3 170 173 174
3 170 171 172
3 171 172 174
3 172 173 174
3 175 177 178
3 175 176 179
3 175 178 179
3 175 176 177
3 176 177 179
3 177 178 179
3 180 182 183
3 180 181 184
3 180 183 184
3 180 181 182
3 181 182 184
3 182 183 184
3 185 187 188
3 185 186 189
3 185 188 189
3 185 186 187
3 186 187 189
3 187 188 189
3 190 192 193
3 190 191 194
3 190 193 194
3 190 191 192
3 191 192 194
3 192 193 194
3 195 197 198
3 195 196 199
3 195 198 199
3 195 196 197
3 196 197 199
3 197 198 199
3 200 202 203
3 200 201 204
3 200 203 204
3 200 201 202
3 201 202 204
3 202 203 204
3 205 207 208
3 205 206 209
3 205 208 209
3 205 206 207
3 206 207 209
3 207 208 209
3 210 212 213
3 210 211 214
3 210 213 214
3 210 211 212
3 211 212 214
3 212 213 214
3 215 217 218
3 215 216 219
3 215 218 219
3 215 216 217
3 216 217 219
3 217 218 219
3 220 222 223
3 220 221 224
3 220 223 224
3 220 221 222
3 221 222 224
3 222 223 224
