ply
format ascii 1.0
comment Right-Handed System
element vertex 25
property float x
property float y
property float z
property uchar red
property uchar green
property uchar blue
element face 30
property list uchar int vertex_index
end_header
0.0000000000 0.0000000000 0.0000000000 80 80 80
-4.1160250000 -3.0953550000 5.7846600000 68 114 196
4.1160250000 -3.0953550000 5.7846600000 68 114 196
4.1160250000 3.0953550000 5.7846600000 68 114 196
-4.1160250000 3.0953550000 5.7846600000 68 114 196
0.0000000000 15.0000000000 5.0000000000 80 80 80
-4.1160250000 9.5102566930 8.5925245044 255 50 0
4.1160250000 9.5102566930 8.5925245044 255 50 0
4.1160250000 14.9431158347 11.5605089805 255 50 0
-4.1160250000 14.9431158347 11.5605089805 255 50 0
0.0000000000 -15.0000000000 5.0000000000 80 80 80
-4.1160250000 -14.9431158347 11.5605089805 255 50 0
4.1160250000 -14.9431158347 11.5605089805 255 50 0
4.1160250000 -9.5102566930 8.5925245044 255 50 0
-4.1160250000 -9.5102566930 8.5925245044 255 50 0
-15.0000000000 0.0000000000 5.0000000000 80 80 80
-15.8388380282 -3.0953550000 12.0498442450 255 50 0
-8.6145344996 -3.0953550000 8.1031892399 255 50 0
-8.6145344996 3.0953550000 8.1031892399 255 50 0
-15.8388380282 3.0953550000 12.0498442450 255 50 0
15.0000000000 0.0000000000 5.0000000000 80 80 80
8.6145344996 -3.0953550000 8.1031892399 255 50 0
15.8388380282 -3.0953550000 12.0498442450 255 50 0
15.8388380282 3.0953550000 12.0498442450 255 50 0
8.6145344996 3.0953550000 8.1031892399 255 50 0
3 0 2 3
3 0 1 4
3 0 3 4
3 0 1 2
3 1 2 4
3 2 3 4
3 5 7 8
3 5 6 9
3 5 8 9
3 5 6 7
3 6 7 9
3 7 8 9
3 10 12 13
3 10 11 14
3 10 13 14
3 10 11 12
3 11 12 14
3 12 13 14
3 15 17 18
3 15 16 19
3 15 18 19
3 15 16 17
3 16 17 19
3 17 18 19
3 20 22 23
3 20 21 24
3 20 23 24
3 20 21 22
3 21 22 24
3 22 23 24
